<mxfile host="Electron" modified="2024-07-08T13:44:13.165Z" agent="Mozilla/5.0 (Windows NT 10.0; Win64; x64) AppleWebKit/537.36 (KHTML, like Gecko) draw.io/22.1.16 Chrome/120.0.6099.109 Electron/28.1.0 Safari/537.36" etag="NdINozxRdnkArrzAFdwm" version="22.1.16" type="device">
  <diagram name="Pagina-1" id="1ivvULd6SqNErC4kCiVV">
    <mxGraphModel dx="1434" dy="836" grid="1" gridSize="10" guides="1" tooltips="1" connect="1" arrows="1" fold="1" page="1" pageScale="1" pageWidth="850" pageHeight="1100" math="0" shadow="0">
      <root>
        <mxCell id="0" />
        <mxCell id="1" parent="0" />
        <mxCell id="xihzh0UQp3UVXtUTC6Pa-1" value="Preparazione gioco" style="swimlane;whiteSpace=wrap;html=1;" parent="1" vertex="1">
          <mxGeometry x="320" y="40" width="200" height="280" as="geometry" />
        </mxCell>
        <mxCell id="xihzh0UQp3UVXtUTC6Pa-2" value="inserimento nome" style="ellipse;whiteSpace=wrap;html=1;" parent="xihzh0UQp3UVXtUTC6Pa-1" vertex="1">
          <mxGeometry x="30" y="40" width="140" height="70" as="geometry" />
        </mxCell>
        <mxCell id="xihzh0UQp3UVXtUTC6Pa-3" value="definizione nuovo codice segreto" style="ellipse;whiteSpace=wrap;html=1;" parent="xihzh0UQp3UVXtUTC6Pa-1" vertex="1">
          <mxGeometry x="30" y="160" width="140" height="70" as="geometry" />
        </mxCell>
        <mxCell id="xihzh0UQp3UVXtUTC6Pa-4" value="Decoder" style="shape=umlActor;verticalLabelPosition=bottom;verticalAlign=top;html=1;" parent="1" vertex="1">
          <mxGeometry x="150" y="440" width="30" height="60" as="geometry" />
        </mxCell>
        <mxCell id="xihzh0UQp3UVXtUTC6Pa-5" value="" style="endArrow=open;endFill=1;endSize=12;html=1;rounded=0;exitX=0.5;exitY=0.5;exitDx=0;exitDy=0;exitPerimeter=0;" parent="1" source="xihzh0UQp3UVXtUTC6Pa-4" edge="1">
          <mxGeometry width="160" relative="1" as="geometry">
            <mxPoint x="300" y="220" as="sourcePoint" />
            <mxPoint x="320" y="110" as="targetPoint" />
            <Array as="points">
              <mxPoint x="280" y="470" />
              <mxPoint x="280" y="110" />
            </Array>
          </mxGeometry>
        </mxCell>
        <mxCell id="xihzh0UQp3UVXtUTC6Pa-8" value="Encoder" style="shape=umlActor;verticalLabelPosition=bottom;verticalAlign=top;html=1;" parent="1" vertex="1">
          <mxGeometry x="150" y="560" width="30" height="60" as="geometry" />
        </mxCell>
        <mxCell id="xihzh0UQp3UVXtUTC6Pa-9" value="" style="endArrow=open;endFill=1;endSize=12;html=1;rounded=0;exitX=0.5;exitY=0.5;exitDx=0;exitDy=0;exitPerimeter=0;" parent="1" source="xihzh0UQp3UVXtUTC6Pa-8" edge="1">
          <mxGeometry width="160" relative="1" as="geometry">
            <mxPoint x="175" y="240" as="sourcePoint" />
            <mxPoint x="320" y="230" as="targetPoint" />
            <Array as="points">
              <mxPoint x="240" y="590" />
              <mxPoint x="240" y="230" />
            </Array>
          </mxGeometry>
        </mxCell>
        <mxCell id="XBeqb5sK7N5P5WI1V8Ra-1" value="Esecuzione gioco" style="swimlane;whiteSpace=wrap;html=1;startSize=30;" vertex="1" parent="1">
          <mxGeometry x="320" y="360" width="200" height="450" as="geometry" />
        </mxCell>
        <mxCell id="XBeqb5sK7N5P5WI1V8Ra-2" value="scelta difficoltÃ " style="ellipse;whiteSpace=wrap;html=1;" vertex="1" parent="XBeqb5sK7N5P5WI1V8Ra-1">
          <mxGeometry x="30" y="50" width="140" height="70" as="geometry" />
        </mxCell>
        <mxCell id="XBeqb5sK7N5P5WI1V8Ra-3" value="inserimento sequenza" style="ellipse;whiteSpace=wrap;html=1;" vertex="1" parent="XBeqb5sK7N5P5WI1V8Ra-1">
          <mxGeometry x="30" y="160" width="140" height="70" as="geometry" />
        </mxCell>
        <mxCell id="XBeqb5sK7N5P5WI1V8Ra-4" value="valutazione sequenza" style="ellipse;whiteSpace=wrap;html=1;" vertex="1" parent="XBeqb5sK7N5P5WI1V8Ra-1">
          <mxGeometry x="30" y="255" width="140" height="70" as="geometry" />
        </mxCell>
        <mxCell id="XBeqb5sK7N5P5WI1V8Ra-5" value="definizione indizi" style="ellipse;whiteSpace=wrap;html=1;" vertex="1" parent="XBeqb5sK7N5P5WI1V8Ra-1">
          <mxGeometry x="30" y="340" width="140" height="70" as="geometry" />
        </mxCell>
        <mxCell id="XBeqb5sK7N5P5WI1V8Ra-6" value="Loop" style="shape=umlFrame;whiteSpace=wrap;html=1;pointerEvents=0;width=40;height=20;" vertex="1" parent="XBeqb5sK7N5P5WI1V8Ra-1">
          <mxGeometry x="20" y="140" width="160" height="290" as="geometry" />
        </mxCell>
        <mxCell id="XBeqb5sK7N5P5WI1V8Ra-7" value="" style="endArrow=open;endFill=1;endSize=12;html=1;rounded=0;exitX=0.5;exitY=0.5;exitDx=0;exitDy=0;exitPerimeter=0;" edge="1" parent="1" source="xihzh0UQp3UVXtUTC6Pa-4">
          <mxGeometry width="160" relative="1" as="geometry">
            <mxPoint x="175" y="120" as="sourcePoint" />
            <mxPoint x="320" y="440.4761904761905" as="targetPoint" />
            <Array as="points">
              <mxPoint x="280" y="470" />
              <mxPoint x="280" y="440" />
            </Array>
          </mxGeometry>
        </mxCell>
        <mxCell id="XBeqb5sK7N5P5WI1V8Ra-8" value="" style="endArrow=open;endFill=1;endSize=12;html=1;rounded=0;exitX=0.5;exitY=0.5;exitDx=0;exitDy=0;exitPerimeter=0;" edge="1" parent="1" source="xihzh0UQp3UVXtUTC6Pa-4">
          <mxGeometry width="160" relative="1" as="geometry">
            <mxPoint x="175" y="480" as="sourcePoint" />
            <mxPoint x="320" y="550" as="targetPoint" />
            <Array as="points">
              <mxPoint x="280" y="470" />
              <mxPoint x="280" y="550" />
            </Array>
          </mxGeometry>
        </mxCell>
        <mxCell id="XBeqb5sK7N5P5WI1V8Ra-9" value="" style="endArrow=open;endFill=1;endSize=12;html=1;rounded=0;exitX=0.5;exitY=0.5;exitDx=0;exitDy=0;exitPerimeter=0;" edge="1" parent="1" source="xihzh0UQp3UVXtUTC6Pa-8">
          <mxGeometry width="160" relative="1" as="geometry">
            <mxPoint x="280" y="600" as="sourcePoint" />
            <mxPoint x="320" y="650" as="targetPoint" />
            <Array as="points">
              <mxPoint x="240" y="590" />
              <mxPoint x="240" y="650" />
            </Array>
          </mxGeometry>
        </mxCell>
        <mxCell id="XBeqb5sK7N5P5WI1V8Ra-10" value="" style="endArrow=open;endFill=1;endSize=12;html=1;rounded=0;exitX=0.5;exitY=0.5;exitDx=0;exitDy=0;exitPerimeter=0;" edge="1" parent="1" source="xihzh0UQp3UVXtUTC6Pa-8">
          <mxGeometry width="160" relative="1" as="geometry">
            <mxPoint x="140" y="700" as="sourcePoint" />
            <mxPoint x="320" y="730" as="targetPoint" />
            <Array as="points">
              <mxPoint x="240" y="590" />
              <mxPoint x="240" y="730" />
            </Array>
          </mxGeometry>
        </mxCell>
      </root>
    </mxGraphModel>
  </diagram>
</mxfile>
